<svg width="216" height="316" viewBox="0 0 216 316" fill="none" xmlns="http://www.w3.org/2000/svg">
<path fill-rule="evenodd" clip-rule="evenodd" d="M194.789 305.468C194.789 305.468 210.86 308.256 215.272 302.679C219.575 297.098 197.433 287.147 190.377 281.64C183.321 276.133 168.619 261.208 168.619 261.208H162.052C162.052 261.208 151.382 287.155 163.225 297.258C175.069 307.361 194.789 305.468 194.789 305.468Z" fill="#D8D8D8"/>
<path fill-rule="evenodd" clip-rule="evenodd" d="M139.891 277.893V292.146L159.448 298.048L172.081 290.617L167.861 277.94H139.891V277.893Z" fill="#B28B67"/>
<path fill-rule="evenodd" clip-rule="evenodd" d="M138.381 285.715C138.381 285.715 149.724 293.057 155.865 293.057C162.005 293.057 169.847 281.01 184.467 287.057C194.163 295.22 209.578 301.407 209.578 307.266V315.234C209.578 315.234 180.971 316.72 165.557 313.36C150.142 310 138.463 307.274 138.463 307.274C138.463 307.274 134.967 302.28 134.967 296.233C135.033 292.465 136.222 288.803 138.381 285.715Z" fill="#EBE8E8"/>
<path fill-rule="evenodd" clip-rule="evenodd" d="M142.163 155.37C142.163 155.37 158.872 155.37 170.274 165.199C181.029 174.473 179.043 185.616 174.795 188.197C170.547 190.779 160.249 180.727 151.007 173.256C146.704 169.192 137.052 168.148 137.052 168.148L142.163 155.37Z" fill="#B28B67"/>
<path fill-rule="evenodd" clip-rule="evenodd" d="M59.8124 270.137L43.616 249.294C43.616 249.294 104.745 134.136 151.574 147.696C173.129 153.934 185.75 270.278 185.461 278.085C185.308 282.199 168.909 281.972 165.823 281.796C153.42 282.278 141.663 191.807 141.663 191.807C141.663 191.807 131.368 243.118 113.654 255.169C89.5691 271.498 59.8124 270.137 59.8124 270.137Z" fill="#009386"/>
<path fill-rule="evenodd" clip-rule="evenodd" d="M141.909 169.67C141.909 169.67 158.618 169.67 170.019 179.495C180.775 188.768 178.788 199.915 174.541 202.497C170.293 205.078 159.995 195.026 150.753 187.556C146.45 183.492 136.797 182.444 136.797 182.444L141.909 169.67Z" fill="#B28B67"/>
<path fill-rule="evenodd" clip-rule="evenodd" d="M87.9225 12.3871C72.4653 10.4589 58.909 15.5474 56.9299 31.0046L53.9573 54.6089C52.1973 68.6346 57.8412 93.2324 71.0416 96.9168C71.0416 97.0263 73.271 98.1997 73.271 98.3092L110.584 96.9559C117.46 91.7305 114.859 49.1801 112.219 35.2092C111.964 33.6829 111.547 32.1882 110.975 30.7504C109.204 25.8588 106.112 21.5536 102.043 18.3122C97.9739 15.0708 93.0863 13.0199 87.9225 12.3871Z" fill="#0E0621"/>
<path fill-rule="evenodd" clip-rule="evenodd" d="M69.1722 9.98931C69.1722 9.98931 71.1278 0.551495 67.1266 0.262063C63.1254 -0.0273681 47.0815 -1.02865 46.6865 4.41579C46.3579 9.85632 58.0916 14.761 58.0916 14.761L69.1722 9.98931Z" fill="#170C30"/>
<path d="M69.1993 7.21201C63.6884 7.87692 59.3274 10.0594 56.3196 13.8611C56.1005 14.1467 56.0034 14.5074 56.0496 14.8644C56.0958 15.2213 56.2815 15.5455 56.5661 15.7659C56.7049 15.881 56.866 15.9662 57.0393 16.0162C57.2125 16.0661 57.3943 16.0798 57.5731 16.0563C57.7519 16.0328 57.9239 15.9726 58.0784 15.8796C58.2328 15.7866 58.3665 15.6626 58.4708 15.5156C61.0483 12.2536 64.7014 10.3762 69.5592 9.81689C69.7323 9.79888 69.9002 9.74675 70.053 9.66352C70.2059 9.58029 70.3408 9.46761 70.4499 9.33197C70.559 9.19633 70.6401 9.04043 70.6886 8.87326C70.7372 8.70609 70.7521 8.53097 70.7325 8.358C70.6909 8.0351 70.5336 7.73825 70.2898 7.52249C70.046 7.30673 69.7322 7.18669 69.4066 7.18463L69.1993 7.21201Z" fill="#F8C05F"/>
<path fill-rule="evenodd" clip-rule="evenodd" d="M77.8745 72.6828C86.2211 77.5406 94.3878 79.9343 98.3186 79.0464C108.304 76.7544 110.009 42.4216 102.621 28.7714C95.213 15.1955 55.866 8.64022 53.2611 35.4909C52.2324 46.2507 57.6652 55.7902 65.1982 63.1903L66.0821 101.767C66.0821 101.767 65.648 103.898 65.9922 104.599C69.215 104.626 74.1119 103.617 77.6789 102.768C78.8351 102.509 79.8519 101.825 80.5289 100.853C81.2059 99.8804 81.4939 98.6896 81.3359 97.5153L77.8745 72.6828Z" fill="#B28B67"/>
<path d="M107.389 51.1592C107.189 51.1618 106.991 51.1248 106.805 51.0504C106.62 50.9759 106.451 50.8656 106.308 50.7256C106.166 50.5856 106.053 50.4188 105.975 50.2348C105.897 50.0507 105.856 49.8531 105.855 49.6534C105.876 49.2473 106.056 48.8657 106.356 48.5917C106.656 48.3177 107.053 48.1735 107.459 48.1906C107.659 48.188 107.858 48.2251 108.043 48.2998C108.229 48.3744 108.398 48.4852 108.541 48.6255C108.683 48.7659 108.797 48.9332 108.874 49.1177C108.952 49.3022 108.992 49.5002 108.992 49.7003C108.972 50.106 108.792 50.4872 108.491 50.7606C108.191 51.034 107.795 51.1773 107.389 51.1592Z" fill="#0E0621"/>
<path d="M95.4943 47.5878C95.2275 47.5914 94.9625 47.5422 94.7148 47.4429C94.467 47.3436 94.2414 47.1963 94.0509 47.0094C93.8604 46.8225 93.7087 46.5998 93.6047 46.354C93.5007 46.1082 93.4463 45.8443 93.4448 45.5774C93.4722 45.0355 93.7122 44.5262 94.1127 44.16C94.5133 43.7939 95.042 43.6005 95.5843 43.6218C95.8511 43.6187 96.116 43.6685 96.3635 43.7682C96.611 43.8679 96.8364 44.0157 97.0266 44.2029C97.2167 44.3902 97.3679 44.6132 97.4715 44.8592C97.575 45.1052 97.6288 45.3692 97.6299 45.6361C97.6035 46.1774 97.3642 46.6863 96.9641 47.0519C96.5641 47.4175 96.0358 47.6101 95.4943 47.5878Z" fill="#0E0621"/>
<path fill-rule="evenodd" clip-rule="evenodd" d="M50.9378 177.167C50.9378 177.167 101.913 171.84 121.731 168.774C125.584 151.173 117.194 158.346 112.982 134.136C112.305 130.268 106.38 123.967 106.38 121.988C106.38 120.008 100.481 93.2204 94.0788 90.4865C83.6201 84.2285 58.1775 93.5607 58.1775 93.5607C58.1775 93.5607 58.2245 145.78 54.192 155.953C50.1595 166.126 50.9378 177.167 50.9378 177.167Z" fill="#C2D3E5"/>
<path d="M90.2029 88.8943C90.2029 88.8943 110.025 92.8291 115.872 97.7807C121.72 102.732 138.913 147.786 138.913 147.786L110.111 153.485L90.2029 88.8943Z" fill="#298E83"/>
<path fill-rule="evenodd" clip-rule="evenodd" d="M12.1344 237.991C12.1344 237.991 74.7063 139.287 129.749 147.496C143.552 148.545 171.682 274.166 169.941 279.833C166.968 289.502 143.204 286.568 135.988 282.712C131.345 280.228 110.823 198.906 110.823 198.906C110.823 198.906 76.2435 271.999 53.5348 273.094C-7.74253 276.051 12.1344 237.991 12.1344 237.991Z" fill="#00AE9F"/>
<path fill-rule="evenodd" clip-rule="evenodd" d="M65.5737 90.5921C70.713 96.2908 69.6687 94.2295 74.9606 113.043C77.4404 124.503 85.4858 151.111 86.2015 151.439C93.9027 155.288 154.402 165.739 154.953 167.389C157.097 173.827 154.402 183.449 148.351 188.842C131.255 191.021 79.173 186.441 66.6062 183.206C64.6819 184.149 31.6828 237.725 11.0002 255.588C7.99636 258.181 3.82307 256.538 2.12951 256.272C-6.86633 212.333 15.5763 211.34 15.1461 182.092C14.755 154.936 22.1042 114.427 35.0934 99.8343C44.4061 88.5504 62.8241 89.4813 65.5737 90.5921Z" fill="#298E83"/>
<path fill-rule="evenodd" clip-rule="evenodd" d="M68.4875 38.6468C72.7234 55.5316 68.4445 97.3153 63.2191 103.014L31.4755 97.8082C29.4417 79.7695 34.7414 66.1702 39.251 60.671C43.4869 55.4456 42.9628 37.4852 47.0735 29.3302C50.0148 23.4634 58.506 9.73884 73.0246 8.96833C87.5431 8.19781 92.436 14.6905 96.6719 20.1897C95.6589 24.5468 93.0071 27.4098 89.5417 29.7996C87.1979 31.3369 84.7676 32.7381 82.2629 33.9963C79.3451 35.5334 77.5068 37.6025 74.593 39.6363C73.3104 38.7266 71.7644 38.2634 70.1928 38.3182C69.6113 38.3428 69.0366 38.4536 68.4875 38.6468Z" fill="#0E0621"/>
<path fill-rule="evenodd" clip-rule="evenodd" d="M73.701 47.4593C53.3626 42.3981 61.5997 30.5197 55.4395 17.5931C66.9385 6.48123 103.731 6.37172 111.268 30.4102C112.056 32.9295 112.499 35.5437 112.587 38.1818C111.875 38.2952 102.523 24.8171 102.523 24.8171C102.523 24.8171 102.762 32.6083 73.701 47.4593Z" fill="#170C30"/>
<path d="M104.776 67.6566C104.63 67.6555 104.49 67.5981 104.385 67.4962C103.663 66.8409 102.787 66.3793 101.839 66.1547C100.396 65.8848 98.5534 66.4324 98.5378 66.4402C98.3948 66.4717 98.2452 66.4481 98.1187 66.3743C97.9923 66.3004 97.8983 66.1817 97.8554 66.0417C97.8125 65.9017 97.8239 65.7507 97.8873 65.6187C97.9507 65.4868 98.0614 65.3835 98.1975 65.3294C98.2835 65.302 100.325 64.6919 102.05 65.0126C103.219 65.2792 104.298 65.8468 105.179 66.6592C105.233 66.713 105.276 66.777 105.306 66.8475C105.335 66.918 105.35 66.9936 105.35 67.0699C105.35 67.1463 105.335 67.2218 105.306 67.2923C105.276 67.3628 105.233 67.4268 105.179 67.4806C105.127 67.5351 105.064 67.5787 104.995 67.6089C104.926 67.6391 104.852 67.6553 104.776 67.6566Z" fill="#0E0621"/>
<path d="M91.5988 44.2046C91.4553 44.202 91.3177 44.1466 91.2125 44.0488C91.1073 43.9511 91.0419 43.818 91.0288 43.675C91.0157 43.532 91.0559 43.3892 91.1416 43.274C91.2273 43.1588 91.3525 43.0793 91.4932 43.0508C91.4932 43.0508 92.7683 42.82 94.4697 42.4797C95.3167 42.3042 96.1242 41.974 96.8516 41.5058C96.9777 41.4176 97.1336 41.3831 97.285 41.4099C97.4365 41.4367 97.5711 41.5225 97.6593 41.6486C97.7475 41.7746 97.782 41.9305 97.7552 42.082C97.7284 42.2334 97.6426 42.3681 97.5165 42.4562C96.659 43.0217 95.7021 43.4199 94.6965 43.6296C92.9873 43.9699 91.7162 44.2046 91.7005 44.2046H91.5988Z" fill="#0E0621"/>
<path d="M95.5099 48.3863C94.4617 49.806 94.0627 50.2519 94.0627 51.0615C94.0627 51.4454 94.2152 51.8134 94.4866 52.0848C94.758 52.3562 95.1261 52.5087 95.5099 52.5087C95.8937 52.5087 96.2618 52.3562 96.5332 52.0848C96.8046 51.8134 96.957 51.4454 96.957 51.0615C96.957 50.2715 96.5777 49.8256 95.5099 48.3863Z" fill="#91E6F6"/>
</svg>
